<svg xmlns="http://www.w3.org/2000/svg" viewBox="0 0 600 510" role="img" aria-label="Ferveur cookware illustration">
  <defs>
    <linearGradient id="bgh" x1="0" y1="0" x2="0" y2="1">
      <stop offset="0" stop-color="#f7f1e6"/><stop offset="1" stop-color="#e9dfca"/>
    </linearGradient>
    <radialGradient id="bodyh" cx="42%" cy="38%" r="72%">
      <stop offset="0" stop-color="#46536f"/><stop offset="55%" stop-color="#2a3450"/>
      <stop offset="100%" stop-color="#161d30"/>
    </radialGradient>
    <radialGradient id="surfh" cx="44%" cy="40%" r="65%">
      <stop offset="0" stop-color="#222c44"/><stop offset="70%" stop-color="#141a2b"/>
      <stop offset="100%" stop-color="#0e1320"/>
    </radialGradient>
    <linearGradient id="steelh" x1="0" y1="0" x2="0" y2="1">
      <stop offset="0" stop-color="#dde2e8"/><stop offset="45%" stop-color="#aab2bd"/>
      <stop offset="100%" stop-color="#d3d8df"/>
    </linearGradient>
    <radialGradient id="sheenh" cx="40%" cy="34%" r="40%">
      <stop offset="0" stop-color="#5a678a" stop-opacity=".55"/>
      <stop offset="100%" stop-color="#5a678a" stop-opacity="0"/>
    </radialGradient>
    <filter id="softh" x="-30%" y="-30%" width="160%" height="160%">
      <feGaussianBlur stdDeviation="9"/>
    </filter>
  </defs><rect width="600" height="510" fill="url(#bgh)"/><rect x="22" y="22" width="556" height="466" fill="none" stroke="#b08d57" stroke-opacity=".28"/><ellipse cx="300" cy="311.2" rx="188" ry="48.800000000000004" fill="#141a2b" opacity=".20" filter="url(#softh)"/><path d="M 112 220 C 76 214 76 262 112 256" fill="none" stroke="url(#steelh)" stroke-width="9" stroke-linecap="round"/><path d="M 488 220 C 524 214 524 262 488 256" fill="none" stroke="url(#steelh)" stroke-width="9" stroke-linecap="round"/><ellipse cx="300" cy="238" rx="188" ry="122" fill="url(#bodyh)" stroke="#0f1626" stroke-width="2"/><ellipse cx="300" cy="238" rx="188" ry="122" fill="none" stroke="#b08d57" stroke-opacity=".40" stroke-width="1.3"/><ellipse cx="300" cy="238" rx="168" ry="104" fill="url(#surfh)" stroke="#0c1120" stroke-width="1.2"/><line x1="181.30003538332457" y1="172" x2="418.6999646166754" y2="172" stroke="#070b14" stroke-width="6" stroke-linecap="round" opacity=".8"/><line x1="158.11635189353214" y1="194" x2="441.88364810646783" y2="194" stroke="#070b14" stroke-width="6" stroke-linecap="round" opacity=".8"/><line x1="145.87102024602902" y1="216" x2="454.12897975397095" y2="216" stroke="#070b14" stroke-width="6" stroke-linecap="round" opacity=".8"/><line x1="142.0" y1="238" x2="458.0" y2="238" stroke="#070b14" stroke-width="6" stroke-linecap="round" opacity=".8"/><line x1="145.87102024602902" y1="260" x2="454.12897975397095" y2="260" stroke="#070b14" stroke-width="6" stroke-linecap="round" opacity=".8"/><line x1="158.11635189353214" y1="282" x2="441.88364810646783" y2="282" stroke="#070b14" stroke-width="6" stroke-linecap="round" opacity=".8"/><line x1="181.30003538332457" y1="304" x2="418.6999646166754" y2="304" stroke="#070b14" stroke-width="6" stroke-linecap="round" opacity=".8"/></svg>