<svg xmlns="http://www.w3.org/2000/svg" viewBox="0 0 600 510" role="img" aria-label="Ferveur cookware illustration">
  <defs>
    <linearGradient id="bgg" x1="0" y1="0" x2="0" y2="1">
      <stop offset="0" stop-color="#f7f1e6"/><stop offset="1" stop-color="#e9dfca"/>
    </linearGradient>
    <radialGradient id="bodyg" cx="42%" cy="38%" r="72%">
      <stop offset="0" stop-color="#46536f"/><stop offset="55%" stop-color="#2a3450"/>
      <stop offset="100%" stop-color="#161d30"/>
    </radialGradient>
    <radialGradient id="surfg" cx="44%" cy="40%" r="65%">
      <stop offset="0" stop-color="#222c44"/><stop offset="70%" stop-color="#141a2b"/>
      <stop offset="100%" stop-color="#0e1320"/>
    </radialGradient>
    <linearGradient id="steelg" x1="0" y1="0" x2="0" y2="1">
      <stop offset="0" stop-color="#dde2e8"/><stop offset="45%" stop-color="#aab2bd"/>
      <stop offset="100%" stop-color="#d3d8df"/>
    </linearGradient>
    <radialGradient id="sheeng" cx="40%" cy="34%" r="40%">
      <stop offset="0" stop-color="#5a678a" stop-opacity=".55"/>
      <stop offset="100%" stop-color="#5a678a" stop-opacity="0"/>
    </radialGradient>
    <filter id="softg" x="-30%" y="-30%" width="160%" height="160%">
      <feGaussianBlur stdDeviation="9"/>
    </filter>
  </defs><rect width="600" height="510" fill="url(#bgg)"/><rect x="22" y="22" width="556" height="466" fill="none" stroke="#b08d57" stroke-opacity=".28"/><ellipse cx="300" cy="320" rx="176.0" ry="34" fill="#141a2b" opacity=".20" filter="url(#softg)"/><path d="M 132 216 C 92 208 92 268 132 260" fill="none" stroke="url(#steelg)" stroke-width="10" stroke-linecap="round"/><path d="M 468 216 C 508 208 508 268 468 260" fill="none" stroke="url(#steelg)" stroke-width="10" stroke-linecap="round"/><rect x="132" y="150" width="336" height="176" rx="30" fill="url(#bodyg)" stroke="#0f1626" stroke-width="2"/><rect x="132" y="150" width="336" height="176" rx="30" fill="none" stroke="#b08d57" stroke-opacity=".40" stroke-width="1.3"/><rect x="154" y="172" width="292" height="132" rx="18" fill="url(#surfg)" stroke="#0c1120" stroke-width="1.4"/><rect x="154" y="172" width="292" height="132" rx="18" fill="url(#sheeng)"/></svg>