<svg xmlns="http://www.w3.org/2000/svg" viewBox="0 0 600 510" role="img" aria-label="Ferveur cookware illustration">
  <defs>
    <linearGradient id="bga" x1="0" y1="0" x2="0" y2="1">
      <stop offset="0" stop-color="#f7f1e6"/><stop offset="1" stop-color="#e9dfca"/>
    </linearGradient>
    <radialGradient id="bodya" cx="42%" cy="38%" r="72%">
      <stop offset="0" stop-color="#46536f"/><stop offset="55%" stop-color="#2a3450"/>
      <stop offset="100%" stop-color="#161d30"/>
    </radialGradient>
    <radialGradient id="surfa" cx="44%" cy="40%" r="65%">
      <stop offset="0" stop-color="#222c44"/><stop offset="70%" stop-color="#141a2b"/>
      <stop offset="100%" stop-color="#0e1320"/>
    </radialGradient>
    <linearGradient id="steela" x1="0" y1="0" x2="0" y2="1">
      <stop offset="0" stop-color="#dde2e8"/><stop offset="45%" stop-color="#aab2bd"/>
      <stop offset="100%" stop-color="#d3d8df"/>
    </linearGradient>
    <radialGradient id="sheena" cx="40%" cy="34%" r="40%">
      <stop offset="0" stop-color="#5a678a" stop-opacity=".55"/>
      <stop offset="100%" stop-color="#5a678a" stop-opacity="0"/>
    </radialGradient>
    <filter id="softa" x="-30%" y="-30%" width="160%" height="160%">
      <feGaussianBlur stdDeviation="9"/>
    </filter>
  </defs><rect width="600" height="510" fill="url(#bga)"/><rect x="22" y="22" width="556" height="466" fill="none" stroke="#b08d57" stroke-opacity=".28"/><ellipse cx="300" cy="331.0" rx="156" ry="63.0" fill="#141a2b" opacity=".20" filter="url(#softa)"/>
    <g>
      <rect x="436" y="224.5" width="150" height="27" rx="13.5"
            fill="url(#steela)" stroke="#7e8794" stroke-width="1.4"/>
      <circle cx="560" cy="238" r="7.5" fill="url(#bga)" stroke="#7e8794" stroke-width="1.4"/>
      <circle cx="452" cy="231" r="3.2" fill="#838c99"/>
      <circle cx="452" cy="245" r="3.2" fill="#838c99"/>
    </g><circle cx="300" cy="238" r="150" fill="url(#bodya)" stroke="#0f1626" stroke-width="2"/><circle cx="300" cy="238" r="150" fill="none" stroke="#b08d57" stroke-opacity=".40" stroke-width="1.3"/><circle cx="300" cy="238" r="130" fill="url(#surfa)" stroke="#0c1120" stroke-width="1.4"/><circle cx="300" cy="238" r="130" fill="url(#sheena)"/><circle cx="300" cy="238" r="129" fill="none" stroke="#b08d57" stroke-opacity=".18" stroke-width="1"/>
    <path d="M 160 221 C 126 214 126 262 160 255"
          fill="none" stroke="url(#steela)" stroke-width="9" stroke-linecap="round"/>
    <path d="M 160 221 C 126 214 126 262 160 255"
          fill="none" stroke="#7e8794" stroke-width="1" stroke-linecap="round" opacity=".6"/></svg>